<svg width="70" height="41" viewBox="0 0 70 41" fill="none" xmlns="http://www.w3.org/2000/svg">
<path fill-rule="evenodd" clip-rule="evenodd" d="M20.0917 10.3667C18.1632 10.3667 16.2798 10.9362 14.68 12.0004C13.0804 13.0645 11.8371 14.5746 11.1039 16.337C10.3707 18.0991 10.1793 20.0368 10.5527 21.906C10.9262 23.7752 11.8486 25.4955 13.207 26.8478C14.5656 28.2004 16.2993 29.1241 18.1901 29.4986C20.0811 29.873 22.0409 29.6806 23.8207 28.9467C25.6004 28.2128 27.1177 26.9715 28.1836 25.3834L31.2341 27.4307L28.1836 25.3834C29.2493 23.7955 29.8166 21.9311 29.8166 20.0259C29.8166 8.94428 38.8336 0 49.9083 0C60.983 0 70 8.94428 70 20.0259C70 31.1074 60.983 40.0517 49.9083 40.0517C44.0015 40.0517 38.68 37.5072 34.9998 33.4511C33.0063 35.6503 30.5402 37.3893 27.773 38.5304C24.1045 40.0432 20.0692 40.4387 16.1763 39.6678L17.1225 34.8898L16.1763 39.6678C12.2833 38.8968 8.70418 36.9933 5.89284 34.1944C3.08126 31.3952 1.16393 27.8261 0.386925 23.937C-0.390108 20.0479 0.00890188 16.0169 1.53251 12.3548C3.05602 8.69295 5.63444 5.56682 8.93816 3.36909C12.2416 1.17154 16.123 0 20.0917 0C22.9544 0 25.275 2.32067 25.275 5.18336C25.275 8.04604 22.9544 10.3667 20.0917 10.3667ZM40.1834 20.0259C40.1834 25.3389 44.5157 29.685 49.9083 29.685C55.3009 29.685 59.6333 25.3389 59.6333 20.0259C59.6333 14.7129 55.3009 10.3667 49.9083 10.3667C44.5157 10.3667 40.1834 14.7129 40.1834 20.0259Z" fill="#68A6EF"/>
</svg>
